<svg xmlns="http://www.w3.org/2000/svg" width="24" height="24" viewBox="0 0 24 24" fill="none">
  <path fill-rule="evenodd" clip-rule="evenodd" d="M19.8912 7.5H11V5.5H22.1088L20.4019 22H17.5V20H18.5981L19.8912 7.5Z" fill="black"/>
  <path fill-rule="evenodd" clip-rule="evenodd" d="M11 9V6H13V9H11Z" fill="black"/>
  <path fill-rule="evenodd" clip-rule="evenodd" d="M15.5 6V2H17.5V6H15.5Z" fill="black"/>
  <path fill-rule="evenodd" clip-rule="evenodd" d="M16 22H2V20H16V22Z" fill="black"/>
  <path fill-rule="evenodd" clip-rule="evenodd" d="M16 19H2V17H16V19Z" fill="black"/>
  <path fill-rule="evenodd" clip-rule="evenodd" d="M16 16H2V14H16V16Z" fill="black"/>
  <path fill-rule="evenodd" clip-rule="evenodd" d="M13.1415 12.9301C13.8892 13.4174 14 13.8895 14 14L16 14C16 13.0173 15.3608 11.9893 14.2335 11.2546C13.087 10.5073 11.3788 10.0087 8.99589 10.0185L9.00411 12.0185C11.1212 12.0098 12.413 12.4553 13.1415 12.9301Z" fill="black"/>
  <path fill-rule="evenodd" clip-rule="evenodd" d="M4.85853 12.9301C4.11085 13.4174 4 13.8895 4 14L2 14C2 13.0173 2.63915 11.9893 3.76647 11.2546C4.91302 10.5073 6.62123 10.0087 9.00411 10.0185L8.99589 12.0185C6.87877 12.0098 5.58698 12.4553 4.85853 12.9301Z" fill="black"/>
</svg>