<svg xmlns="http://www.w3.org/2000/svg" width="24" height="24" viewBox="0 0 24 24" fill="none">
  <path fill-rule="evenodd" clip-rule="evenodd" d="M2 2H22V22H2V2ZM6 7H8V9H6V7ZM8 11H6V13H8V11ZM6 15H8V17H6V15ZM18 15H10V17H18V15ZM10 11H18V13H10V11ZM18 7H10V9H18V7Z" fill="#1C1C1C"/>
  <path fill-rule="evenodd" clip-rule="evenodd" d="M4 5H20V4H4V5ZM4 19V20H20V19H4ZM2 2V22H22V2H2ZM8 7H6V9H8V7ZM6 11H8V13H6V11ZM8 15H6V17H8V15ZM18 15V17H10V15H18ZM10 11V13H18V11H10ZM18 7V9H10V7H18Z" fill="#1C1C1C"/>
</svg>