<svg xmlns="http://www.w3.org/2000/svg" width="40" height="20" viewBox="0 0 40 20" fill="none">
  <path d="M11.7717 10.4511H2.05637C1.72063 10.4511 1.41987 10.3882 1.15408 10.2623C0.902284 10.1364 0.685456 9.96849 0.5036 9.75866C0.335734 9.53484 0.209834 9.29003 0.1259 9.02424C0.0419667 8.74447 0 8.45769 0 8.16393V0.903687H11.7717V10.4511ZM10.5966 12.0458V13.095C10.5966 13.7385 10.7715 14.2841 11.1212 14.7317C11.4849 15.1654 11.9885 15.5221 12.632 15.8019C13.2615 16.0816 14.0309 16.2845 14.9401 16.4104C15.8494 16.5223 16.7867 16.5783 17.7519 16.5783V19.0963C16.9126 19.0963 16.0593 19.0683 15.1919 19.0123C14.3246 18.9704 13.5133 18.8584 12.7579 18.6766C12.0025 18.4807 11.303 18.215 10.6595 17.8792C10.03 17.5575 9.51245 17.1028 9.10677 16.5153C8.68711 17.1028 8.15553 17.5575 7.51204 17.8792C6.86855 18.215 6.16911 18.4807 5.4137 18.6766C4.6583 18.8584 3.83995 18.9704 2.95865 19.0123C2.07735 19.0683 1.23102 19.0963 0.419667 19.0963V16.5783C1.35692 16.5783 2.28019 16.5223 3.18947 16.4104C4.09875 16.2845 4.87513 16.0816 5.51862 15.8019C6.19009 15.5221 6.70068 15.1654 7.05041 14.7317C7.41412 14.2841 7.59597 13.7385 7.59597 13.095V12.0458H10.5966ZM14.2687 0.903687H17.1854V4.74364H19.0529V7.30361H17.1854V11.7521H14.2687V0.903687ZM8.85497 7.84918V3.50562H2.91669V7.36656C2.91669 7.6883 3.07056 7.84918 3.37832 7.84918H8.85497Z" fill="#FFC933"/>
  <path d="M37.1882 7.05181H35.0689V10.598H32.2571V0.903687H35.0689V4.44987H37.1882V0.903687H40V19.0963H23.8218C23.1364 19.0963 22.5978 18.8794 22.2061 18.4458C21.8144 18.0261 21.6186 17.5015 21.6186 16.872V11.3744H24.4723V12.7173H37.1882V7.05181ZM27.5149 4.61774V3.90431C27.5149 3.54059 27.452 3.28879 27.3261 3.14891C27.2141 3.00902 27.0393 2.93907 26.8015 2.93907H21.1989V0.903687H28.1864C28.9418 0.903687 29.4873 1.10653 29.8231 1.5122C30.1588 1.90389 30.3267 2.47744 30.3267 3.23284V6.65313H23.9897V7.34558C23.9897 7.70929 24.0527 7.96109 24.1786 8.10098C24.3045 8.24087 24.4863 8.31081 24.7241 8.31081H30.5155V10.3462H23.3392C22.5698 10.3462 22.0173 10.1503 21.6815 9.75866C21.3598 9.35298 21.1989 8.77244 21.1989 8.01704V4.61774H27.5149ZM24.4723 16.1376C24.4723 16.2915 24.5003 16.4104 24.5563 16.4943C24.6262 16.5783 24.7451 16.6202 24.913 16.6202H37.1882V15.0045H24.4723V16.1376Z" fill="#FFC933"/>
</svg>