<svg xmlns="http://www.w3.org/2000/svg" width="24" height="24" viewBox="0 0 24 24" fill="none">
  <path d="M11 22.95V20.95C8.91672 20.7167 7.12905 19.8543 5.63705 18.363C4.14505 16.8717 3.28272 15.084 3.05005 13H1.05005V11H3.05005C3.28338 8.91665 4.14605 7.12899 5.63805 5.63699C7.13005 4.14499 8.91738 3.28265 11 3.04999V1.04999H13V3.04999C15.0834 3.28332 16.8711 4.14599 18.3631 5.63799C19.8551 7.12999 20.7174 8.91732 20.9501 11H22.9501V13H20.9501C20.7167 15.0833 19.8544 16.871 18.3631 18.363C16.8717 19.855 15.084 20.7173 13 20.95V22.95H11ZM12 19C13.9334 19 15.5834 18.3167 16.95 16.95C18.3167 15.5833 19 13.9333 19 12C19 10.0667 18.3167 8.41665 16.95 7.04999C15.5834 5.68332 13.9334 4.99999 12 4.99999C10.0667 4.99999 8.41672 5.68332 7.05005 7.04999C5.68338 8.41665 5.00005 10.0667 5.00005 12C5.00005 13.9333 5.68338 15.5833 7.05005 16.95C8.41672 18.3167 10.0667 19 12 19ZM12 16C10.9 16 9.95838 15.6083 9.17505 14.825C8.39172 14.0417 8.00005 13.1 8.00005 12C8.00005 10.9 8.39172 9.95832 9.17505 9.17499C9.95838 8.39165 10.9 7.99999 12 7.99999C13.1 7.99999 14.0417 8.39165 14.825 9.17499C15.6084 9.95832 16 10.9 16 12C16 13.1 15.6084 14.0417 14.825 14.825C14.0417 15.6083 13.1 16 12 16ZM12 14C12.55 14 13.021 13.8043 13.413 13.413C13.805 13.0217 14.0007 12.5507 14 12C14 11.45 13.8044 10.9793 13.413 10.588C13.0217 10.1967 12.5507 10.0007 12 9.99999C11.45 9.99999 10.9794 10.196 10.588 10.588C10.1967 10.98 10.0007 11.4507 10 12C10 12.55 10.196 13.021 10.588 13.413C10.98 13.805 11.4507 14.0007 12 14Z" fill="black"/>
</svg>