<svg xmlns="http://www.w3.org/2000/svg" width="24" height="24" viewBox="0 0 24 24" fill="none">
  <path fill-rule="evenodd" clip-rule="evenodd" d="M19 10C19 14.4183 15.4183 18 11 18C6.58172 18 3 14.4183 3 10C3 5.58172 6.58172 2 11 2C15.4183 2 19 5.58172 19 10ZM11 16C14.3137 16 17 13.3137 17 10C17 6.68629 14.3137 4 11 4C7.68629 4 5 6.68629 5 10C5 13.3137 7.68629 16 11 16Z" fill="black"/>
  <path fill-rule="evenodd" clip-rule="evenodd" d="M16.7072 15.2929L21 19.5L19.5 21L15.293 16.7071L16.7072 15.2929Z" fill="black"/>
</svg>