<svg xmlns="http://www.w3.org/2000/svg" width="24" height="24" viewBox="0 0 24 24" fill="none">
  <path d="M12.9498 16.5194L9.19274 14.4586C8.70223 14.986 8.06534 15.3528 7.36483 15.5114C6.66432 15.67 5.93259 15.6129 5.26472 15.3477C4.59686 15.0826 4.02374 14.6214 3.61986 14.0243C3.21598 13.4272 3 12.7218 3 11.9996C3 11.2774 3.21598 10.5719 3.61986 9.97482C4.02374 9.37772 4.59686 8.9166 5.26472 8.65141C5.93259 8.38621 6.66432 8.32919 7.36483 8.48776C8.06534 8.64633 8.70223 9.01315 9.19274 9.54056L12.9507 7.47975C12.7376 6.6302 12.84 5.73166 13.2385 4.95258C13.6371 4.1735 14.3045 3.56736 15.1156 3.24778C15.9267 2.9282 16.8258 2.91714 17.6445 3.21665C18.4631 3.51616 19.1451 4.10569 19.5624 4.87473C19.9798 5.64377 20.104 6.53952 19.9117 7.39406C19.7194 8.2486 19.2238 9.00327 18.5179 9.5166C17.8119 10.0299 16.9441 10.2667 16.077 10.1824C15.2099 10.0982 14.4031 9.69882 13.8078 9.0591L10.0499 11.1199C10.1941 11.6971 10.1941 12.3012 10.0499 12.8783L13.8078 14.9392C14.4034 14.2998 15.2104 13.9008 16.0775 13.817C16.9446 13.7332 17.8123 13.9703 18.518 14.484C19.2237 14.9976 19.7189 15.7525 19.9108 16.6071C20.1027 17.4617 19.9782 18.3574 19.5605 19.1262C19.1427 19.8951 18.4606 20.4843 17.6418 20.7834C16.8231 21.0826 15.924 21.0712 15.113 20.7513C14.302 20.4314 13.6349 19.825 13.2367 19.0457C12.8384 18.2665 12.7364 17.368 12.9498 16.5185V16.5194ZM6.57918 13.799C7.05378 13.799 7.50895 13.6093 7.84454 13.2718C8.18014 12.9343 8.36867 12.4765 8.36867 11.9991C8.36867 11.5218 8.18014 11.064 7.84454 10.7265C7.50895 10.3889 7.05378 10.1993 6.57918 10.1993C6.10457 10.1993 5.64941 10.3889 5.31381 10.7265C4.97822 11.064 4.78968 11.5218 4.78968 11.9991C4.78968 12.4765 4.97822 12.9343 5.31381 13.2718C5.64941 13.6093 6.10457 13.799 6.57918 13.799ZM16.4214 8.39947C16.896 8.39947 17.3512 8.20984 17.6868 7.87231C18.0224 7.53477 18.2109 7.07698 18.2109 6.59963C18.2109 6.12229 18.0224 5.6645 17.6868 5.32696C17.3512 4.98943 16.896 4.7998 16.4214 4.7998C15.9468 4.7998 15.4916 4.98943 15.156 5.32696C14.8204 5.6645 14.6319 6.12229 14.6319 6.59963C14.6319 7.07698 14.8204 7.53477 15.156 7.87231C15.4916 8.20984 15.9468 8.39947 16.4214 8.39947ZM16.4214 19.1985C16.896 19.1985 17.3512 19.0088 17.6868 18.6713C18.0224 18.3338 18.2109 17.876 18.2109 17.3986C18.2109 16.9213 18.0224 16.4635 17.6868 16.1259C17.3512 15.7884 16.896 15.5988 16.4214 15.5988C15.9468 15.5988 15.4916 15.7884 15.156 16.1259C14.8204 16.4635 14.6319 16.9213 14.6319 17.3986C14.6319 17.876 14.8204 18.3338 15.156 18.6713C15.4916 19.0088 15.9468 19.1985 16.4214 19.1985Z" fill="black"/>
</svg>